Coordinates
version=1
nRows=13
nColumns=40
inDegrees=yes

Units are S.I. units (second, meters, Newtons, ...)
Angles are in degrees.

endheader
time	pelvis_tilt	pelvis_list	pelvis_rotation	pelvis_tx	pelvis_ty	pelvis_tz	hip_flexion_r	hip_adduction_r	hip_rotation_r	knee_angle_r	knee_angle_r_beta	ankle_angle_r	subtalar_angle_r	mtp_angle_r	hip_flexion_l	hip_adduction_l	hip_rotation_l	knee_angle_l	knee_angle_l_beta	ankle_angle_l	subtalar_angle_l	mtp_angle_l	lumbar_extension	lumbar_bending	lumbar_rotation	arm_flex_r	arm_add_r	arm_rot_r	elbow_flex_r	pro_sup_r	wrist_flex_r	wrist_dev_r	arm_flex_l	arm_add_l	arm_rot_l	elbow_flex_l	pro_sup_l	wrist_flex_l	wrist_dev_l
      2.43378571	     -2.90899700	     -5.61605811	     -7.73225916	      1.01417690	      0.93232574	      0.45639543	     22.20361535	      0.71660963	    -10.13765588	     18.34204327	     18.34204327	      3.45100494	      0.13104921	     -0.59500016	      5.57337351	     -5.77897750	    -13.21908767	     19.08439025	     19.08439025	     17.05429101	    -14.74496095	      1.06327108	    -10.56502586	      6.40014201	      1.76884825	    -12.32519715	    -11.70602723	    -10.85471171	     27.67645164	     46.56623396	      0.00000000	      0.00000000	     26.32019440	    -16.94408451	    -12.49246543	     74.23276925	     47.59605439	      0.00000000	      0.00000000
      2.45257143	     -2.97052896	     -5.45995366	     -8.06439579	      1.01506180	      0.93173676	      0.45905551	     21.55099131	      0.90296155	    -10.97208714	     15.69705822	     15.69705822	      3.15898331	      3.22153066	      0.94939669	      4.64350633	     -5.66080237	    -13.82690739	     18.18939079	     18.18939079	     17.00840508	    -14.24594451	      0.20522570	    -10.46650842	      6.27968959	      1.69516772	    -12.70731325	    -11.47599369	    -11.22925787	     28.55372748	     46.54603860	      0.00000000	      0.00000000	     25.96492840	    -16.86033082	    -12.98613128	     75.13257865	     47.65210714	      0.00000000	      0.00000000
      2.47135714	     -3.03874030	     -5.25857384	     -8.34963752	      1.01624405	      0.93091434	      0.46189722	     21.15206053	      0.99778991	    -11.64116020	     14.08499764	     14.08499764	      2.97402138	      5.44938851	      2.22381764	      3.79817787	     -5.51810088	    -14.40538263	     17.45433814	     17.45433814	     16.93050072	    -13.83864437	     -0.76689007	    -10.34323897	      6.14699248	      1.62805699	    -12.94592117	    -11.27393878	    -11.65481057	     29.62119371	     46.52034559	      0.00000000	      0.00000000	     25.49326241	    -16.77689166	    -13.54404950	     76.00682573	     47.71257375	      0.00000000	      0.00000000
      2.49014286	     -3.17380142	     -5.11242257	     -8.51339634	      1.01743852	      0.92954813	      0.46481221	     21.32206422	      1.11632114	    -11.68820034	     13.91318987	     13.91318987	      2.82678127	      5.56663680	      2.30783346	      3.37808986	     -5.47978383	    -14.52642518	     17.39535267	     17.39535267	     17.32337630	    -13.95807863	     -0.91818053	    -10.04262471	      6.08809721	      1.66545770	    -12.85153775	    -11.18806198	    -11.65826929	     29.70732859	     46.51717468	      0.00000000	      0.00000000	     25.42783129	    -16.72247316	    -13.54392706	     76.03612677	     47.71297259	      0.00000000	      0.00000000
      2.50892857	     -3.22987740	     -5.00860595	     -8.77470017	      1.01939119	      0.92899683	      0.46801866	     20.70163955	      1.33227220	    -11.98876807	     12.91114041	     12.91114041	      2.40865461	      6.71800060	      2.31297062	      2.30708012	     -5.40660962	    -15.12205002	     16.36227492	     16.36227492	     17.36175465	    -13.17289878	     -1.28354524	     -9.80512779	      6.13479651	      1.72457075	    -12.72858786	    -11.08016603	    -11.91183281	     30.50436135	     46.49757066	      0.00000000	      0.00000000	     24.61249028	    -16.45303156	    -13.84913892	     76.46374232	     47.74013340	      0.00000000	      0.00000000
      2.52771429	     -3.15564129	     -5.00228144	     -8.92840015	      1.02142095	      0.92805049	      0.47135560	     20.39390563	      1.52440674	    -12.10224152	     13.12403622	     13.12403622	      1.74499603	      6.63017882	     -0.25337909	      1.47162596	     -5.55410935	    -15.68397713	     16.08833368	     16.08833368	     17.37566058	    -12.70682933	     -2.45511942	     -9.80519443	      6.25201283	      1.41231354	    -12.64846000	    -10.98427568	    -12.73023543	     32.66926873	     46.44272433	      0.00000000	      0.00000000	     23.50349564	    -16.20092407	    -15.07570855	     77.92206009	     47.85891861	      0.00000000	      0.00000000
      2.54650000	     -3.12935471	     -5.03019448	     -9.00229726	      1.02362679	      0.92726915	      0.47471593	     20.22312557	      1.71734935	    -11.96634732	     13.83004388	     13.83004388	      1.91364374	      6.08438221	     -0.87897515	      0.71371248	     -5.68233866	    -15.78356756	     15.85363457	     15.85363457	     17.62609527	    -12.65070030	     -2.43479200	     -9.63776379	      6.45521737	      1.53165480	    -12.17401633	    -11.07277547	    -12.77811116	     32.90715908	     46.43719174	      0.00000000	      0.00000000	     23.00727523	    -15.90894500	    -15.00668088	     77.74907551	     47.85003661	      0.00000000	      0.00000000
      2.56528571	     -3.08085831	     -4.93885388	     -9.07774539	      1.02595921	      0.92654683	      0.47830772	     20.16873582	      1.82014316	    -11.37317525	     14.89929148	     14.89929148	      2.03411440	      4.71664833	     -2.28513390	     -0.06080132	     -5.70761441	    -15.99121960	     15.62056328	     15.62056328	     17.90464498	    -12.36668982	     -2.26688755	     -9.45562574	      6.48170324	      1.50545613	    -11.56680979	    -11.12437255	    -12.92728948	     33.36006270	     46.42725325	      0.00000000	      0.00000000	     22.40400674	    -15.73239066	    -15.12070866	     77.66821809	     47.85656281	      0.00000000	      0.00000000
      2.58407143	     -3.04805058	     -4.96484580	     -9.05285288	      1.02836000	      0.92596126	      0.48199437	     20.01178467	      2.07329224	    -10.66589323	     15.84886587	     15.84886587	      2.06352178	      3.04401071	     -3.94479926	     -0.69440768	     -5.92060830	    -16.10503975	     15.64906840	     15.64906840	     18.27042821	    -12.11065621	     -1.88421676	     -9.27946361	      6.64906875	      1.41182849	    -10.87939838	    -11.25131999	    -13.16491943	     33.85813603	     46.41970010	      0.00000000	      0.00000000	     21.62042856	    -15.47089388	    -15.28664175	     77.65682830	     47.86771247	      0.00000000	      0.00000000
      2.60285714	     -3.03511795	     -5.13697926	     -8.94269474	      1.03088538	      0.92571635	      0.48569898	     19.58532852	      2.40164297	    -10.60990467	     16.40703302	     16.40703302	      2.57693543	      2.65752886	     -4.37846046	     -1.28096908	     -6.30454606	    -16.01644850	     15.72498270	     15.72498270	     18.37977922	    -12.14062114	     -1.78890061	     -9.09111240	      6.99155586	      1.54904488	    -10.26219744	    -11.48104740	    -13.22269821	     34.09591702	     46.41787775	      0.00000000	      0.00000000	     20.98037166	    -14.94347268	    -15.11418877	     77.46654813	     47.84880037	      0.00000000	      0.00000000
      2.62164286	     -2.96378000	     -5.14501512	     -8.82643977	      1.03321532	      0.92551781	      0.48967606	     19.50210457	      2.66441380	     -9.66400439	     17.57629481	     17.57629481	      2.86238540	      0.51178193	     -5.46089204	     -1.82168444	     -6.57186746	    -16.07113673	     15.96788805	     15.96788805	     18.76121612	    -11.83027449	     -1.02727921	     -8.95215766	      7.04842877	      1.21145220	     -9.42171543	    -11.71263331	    -13.59616224	     34.57631500	     46.42053572	      0.00000000	      0.00000000	     20.09284750	    -14.96146561	    -15.30421805	     77.25376706	     47.85717704	      0.00000000	      0.00000000
      2.64042857	     -2.88859425	     -5.28922199	     -8.62156858	      1.03556256	      0.92576032	      0.49353090	     19.00391250	      2.95944488	     -9.63079131	     18.04717500	     18.04717500	      3.40992985	      0.09315356	     -5.80234288	     -2.32532495	     -6.99044319	    -15.96106874	     16.24196126	     16.24196126	     18.71483494	    -11.84053695	     -0.81368409	     -8.86723359	      7.35605561	      1.29970896	     -8.73938598	    -12.03569693	    -13.70601745	     34.82725653	     46.42148222	      0.00000000	      0.00000000	     19.36142565	    -14.40752212	    -15.10857570	     77.00127144	     47.83521075	      0.00000000	      0.00000000
      2.65921429	     -2.83496511	     -5.36895469	     -8.37739394	      1.03775899	      0.92612047	      0.49749930	     18.51939418	      3.20247053	     -9.55163752	     18.43461197	     18.43461197	      4.02574535	     -0.31740004	     -6.07342223	     -2.71426116	     -7.38602528	    -15.81896881	     16.62209621	     16.62209621	     18.61312574	    -11.85138971	     -0.62283198	     -8.75912113	      7.50357423	      1.31936511	     -8.06487320	    -12.36370931	    -13.82634379	     35.09373048	     46.42264689	      0.00000000	      0.00000000	     18.64279776	    -13.96299318	    -14.91903469	     76.68238220	     47.81247854	      0.00000000	      0.00000000
